HIERARCHY
ROOT hip
{
	OFFSET 0.000000 0.000000 0.000000
	CHANNELS 6 Xposition Yposition Zposition Xrotation Zrotation Yrotation 
	JOINT abdomen
	{
		OFFSET 0.000000 3.422050 0.000000
		CHANNELS 3 Xrotation Zrotation Yrotation 
		JOINT chest
		{
			OFFSET 0.000000 8.486693 -0.684411
			CHANNELS 3 Xrotation Zrotation Yrotation 
			JOINT neck
			{
				OFFSET 0.000000 10.266162 -0.273764
				CHANNELS 3 Xrotation Zrotation Yrotation 
				JOINT head
				{
					OFFSET 0.000000 3.148285 0.000000
					CHANNELS 3 Xrotation Zrotation Yrotation 
					End Site
					{
						OFFSET 0.000000 3.148289 0.000000
					}
				}
			}
			JOINT lCollar
			{
				OFFSET 3.422053 6.707223 -0.821293
				CHANNELS 3 Yrotation Zrotation Xrotation 
				JOINT lShldr
				{
					OFFSET 3.285171 0.000000 0.000000
					CHANNELS 3 Zrotation Yrotation Xrotation 
					JOINT lForeArm
					{
						OFFSET 10.129278 0.000000 0.000000
						CHANNELS 3 Yrotation Zrotation Xrotation 
						JOINT lHand
						{
							OFFSET 8.486692 0.000000 0.000000
							CHANNELS 3 Zrotation Yrotation Xrotation 
							End Site
							{
								OFFSET 4.106464 0.000000 0.000000
							}
						}
					}
				}
			}
			JOINT rCollar
			{
				OFFSET -3.558935 6.707223 -0.821293
				CHANNELS 3 Yrotation Zrotation Xrotation 
				JOINT rShldr
				{
					OFFSET -3.148289 0.000000 0.000000
					CHANNELS 3 Zrotation Yrotation Xrotation 
					JOINT rForeArm
					{
						OFFSET -10.266159 0.000000 0.000000
						CHANNELS 3 Yrotation Zrotation Xrotation 
						JOINT rHand
						{
							OFFSET -8.349810 0.000000 0.000000
							CHANNELS 3 Zrotation Yrotation Xrotation 
							End Site
							{
								OFFSET -4.106464 0.000000 0.000000
							}
						}
					}
				}
			}
		}
	}
	JOINT lThigh
	{
		OFFSET 5.338403 -1.642589 1.368821
		CHANNELS 3 Xrotation Zrotation Yrotation 
		JOINT lShin
		{
			OFFSET -2.053232 -20.121670 0.000000
			CHANNELS 3 Xrotation Zrotation Yrotation 
			JOINT lFoot
			{
				OFFSET 0.000000 -19.300380 -1.231939
				CHANNELS 3 Xrotation Yrotation Zrotation 
				End Site
				{
					OFFSET 0.000000 -2.463878 4.653993
				}
			}
		}
	}
	JOINT rThigh
	{
		OFFSET -5.338403 -1.642589 1.368821
		CHANNELS 3 Xrotation Zrotation Yrotation 
		JOINT rShin
		{
			OFFSET 2.053232 -20.121670 0.000000
			CHANNELS 3 Xrotation Zrotation Yrotation 
			JOINT rFoot
			{
				OFFSET 0.000000 -19.300380 -1.231939
				CHANNELS 3 Xrotation Yrotation Zrotation 
				End Site
				{
					OFFSET 0.000000 -2.463878 4.653993
				}
			}
		}
	}
}
MOTION
Frames: 20
Frame Time: 0.071282
0.000000 43.528500 0.000000 0.000000 0.000000 0.000000 0.000000 0.000000 0.000000 0.000000 0.000000 0.000000 0.000000 0.000000 0.000000 0.000000 0.000000 0.000000 0.000000 0.000000 0.000000 0.000000 0.000000 0.000000 0.000000 0.000000 0.000000 0.000000 0.000000 0.000000 0.000000 0.000000 0.000000 0.000000 0.000000 0.000000 0.000000 0.000000 0.000000 0.000000 0.000000 0.000000 0.000000 0.000000 0.000000 0.000000 0.000000 0.000000 0.000000 0.000000 0.000000 0.000000 0.000000 0.000000 0.000000 0.000000 0.000000 0.000000 0.000000 0.000000 
0.000000 9.997749 0.000000 -26.001497 0.000000 0.000000 29.996357 1.998772 21.997282 19.996607 -0.002475 6.997691 -0.596523 -0.054910 0.537104 -10.002823 -0.000077 18.999630 0.000000 0.000000 0.000000 14.001234 -49.002811 -22.001631 -14.000520 0.000000 0.000000 0.000000 0.000000 -0.008743 0.000000 0.000000 0.000000 -16.001188 37.997417 -25.001701 117.998253 4.998290 -4.997221 0.000000 0.000000 0.000000 -110.024002 0.000000 0.000000 130.994461 -0.000002 0.000001 0.000000 0.000000 0.000000 -111.005257 -16.001534 0.001773 130.994461 -0.000002 0.000001 0.000000 0.000000 0.000000 
0.000000 9.997749 0.000000 -26.001497 0.000000 0.000000 29.996357 1.998772 21.997282 19.996607 -0.002475 6.997691 -1.171268 -0.204667 1.056945 -9.883127 -0.030728 18.705322 0.000240 0.000000 0.000000 14.001234 -49.002811 -22.001631 -14.000520 0.000000 0.000000 0.000333 -0.000415 -0.010661 0.000000 0.000000 0.000000 -16.001188 37.997417 -25.001701 117.998253 4.998290 -4.997221 0.000000 0.000000 0.000000 -110.024002 0.000000 0.000000 130.994461 -0.000002 0.000001 0.000228 0.000000 0.000000 -111.005257 -16.001534 0.001773 130.994461 -0.000002 0.000001 0.000000 0.000000 0.000000 
0.000000 9.997749 0.000000 -26.001499 0.000000 0.000000 29.996361 1.998772 21.997284 19.996607 -0.002475 6.997691 -1.748299 -0.349427 1.579123 -9.763187 -0.060786 18.410728 0.000480 0.000000 0.000000 14.001234 -49.002811 -22.001631 -14.000521 0.000000 0.000000 0.000667 -0.000830 -0.012579 0.000000 0.000000 0.000000 -16.001188 37.997417 -25.001701 117.998253 4.998290 -4.997221 0.000000 0.000000 0.000000 -110.024010 0.000000 0.000000 130.994461 -0.000002 0.000001 0.000456 0.000000 0.000000 -111.005257 -16.001534 0.001773 130.994461 -0.000002 0.000001 0.000000 0.000000 0.000000 
0.000000 9.997749 0.000000 -26.001499 0.000000 0.000000 29.996357 1.998772 21.997282 19.996609 -0.002475 6.997692 -2.327529 -0.489127 2.103551 -9.643004 -0.090249 18.115854 0.000719 0.000000 0.000000 14.001234 -49.002811 -22.001631 -14.000520 0.000000 0.000000 0.001000 -0.001245 -0.014497 0.000000 0.000000 0.000000 -16.001188 37.997417 -25.001699 117.998253 4.998290 -4.997221 0.000000 0.000000 0.000000 -110.024002 0.000000 0.000000 130.994461 -0.000002 0.000001 0.000684 0.000000 0.000000 -111.005257 -16.001534 0.001773 130.994461 -0.000002 0.000001 0.000000 0.000000 0.000000 
0.000000 9.997749 0.000000 -26.001497 0.000000 0.000000 29.996357 1.998773 21.997282 19.996609 -0.002475 6.997692 -2.908868 -0.623702 2.630139 -9.522590 -0.119112 17.820713 0.000959 0.000000 0.000000 14.001235 -49.002815 -22.001633 -14.000520 0.000000 0.000000 0.001334 -0.001661 -0.016415 0.000000 0.000000 0.000000 -16.001188 37.997417 -25.001701 117.998253 4.998290 -4.997221 0.000000 0.000000 0.000000 -110.024002 0.000000 0.000000 130.994461 -0.000002 0.000001 0.000912 0.000000 0.000000 -111.005257 -16.001534 0.001773 130.994461 -0.000002 0.000001 0.000000 0.000000 0.000000 
0.000000 9.997749 0.000000 -26.001497 0.000000 0.000000 29.996357 1.998772 21.997282 19.996609 -0.002475 6.997692 -3.492224 -0.753094 3.158795 -9.401937 -0.147375 17.525297 0.001199 0.000000 0.000000 14.001235 -49.002811 -22.001633 -14.000520 0.000000 0.000000 0.001667 -0.002076 -0.018333 0.000000 0.000000 0.000000 -16.001188 37.997417 -25.001701 117.998253 4.998290 -4.997221 0.000000 0.000000 0.000000 -110.024002 0.000000 0.000000 130.994446 -0.000002 0.000001 0.001140 0.000000 0.000000 -111.005257 -16.001534 0.001773 130.994461 -0.000002 0.000001 0.000000 0.000000 0.000000 
0.000000 9.997749 0.000000 -26.001495 0.000000 0.000000 29.996357 1.998772 21.997282 19.996607 -0.002476 6.997690 -4.077506 -0.877244 3.689426 -9.281058 -0.175035 17.229620 0.001439 0.000000 0.000000 14.001234 -49.002811 -22.001631 -14.000520 0.000000 0.000000 0.002000 -0.002491 -0.020251 0.000000 0.000000 0.000000 -16.001188 37.997417 -25.001701 117.998253 4.998290 -4.997221 0.000000 0.000000 0.000000 -110.024002 0.000000 0.000000 130.994461 -0.000002 0.000001 0.001368 0.000000 0.000000 -111.005257 -16.001534 0.001773 130.994461 -0.000002 0.000001 0.000000 0.000000 0.000000 
0.000000 9.997749 0.000000 -26.001497 0.000000 0.000000 29.996357 1.998772 21.997282 19.996605 -0.002475 6.997690 -4.664614 -0.996098 4.221936 -9.159958 -0.202088 16.933689 0.001678 0.000000 0.000000 14.001232 -49.002804 -22.001629 -14.000520 0.000000 0.000000 0.002334 -0.002906 -0.022170 0.000000 0.000000 0.000000 -16.001188 37.997417 -25.001699 117.998253 4.998290 -4.997221 0.000000 0.000000 0.000000 -110.024002 0.000000 0.000000 130.994461 -0.000002 0.000001 0.001596 0.000000 0.000000 -111.005257 -16.001532 0.001772 130.994461 -0.000002 0.000001 0.000000 0.000000 0.000000 
0.000000 9.997749 0.000000 -26.001495 0.000000 0.000000 29.996357 1.998772 21.997278 19.996607 -0.002476 6.997691 -5.253451 -1.109602 4.756224 -9.038639 -0.228532 16.637499 0.001918 0.000000 0.000000 14.001234 -49.002804 -22.001631 -14.000519 0.000000 0.000000 0.002667 -0.003321 -0.024088 0.000000 0.000000 0.000000 -16.001188 37.997417 -25.001701 117.998253 4.998290 -4.997221 0.000000 0.000000 0.000000 -110.024002 0.000000 0.000000 130.994446 -0.000002 0.000001 0.001824 0.000000 0.000000 -111.005249 -16.001532 0.001773 130.994461 -0.000002 0.000001 0.000000 0.000000 0.000000 
0.000000 9.997749 0.000000 -26.001497 0.000000 0.000000 29.996357 1.998772 21.997282 19.996607 -0.002476 6.997691 -5.843917 -1.217707 5.292192 -8.917105 -0.254366 16.341066 0.002158 0.000000 0.000000 14.001234 -49.002811 -22.001631 -14.000519 0.000000 0.000000 0.003001 -0.003736 -0.026006 0.000000 0.000000 0.000000 -16.001188 37.997417 -25.001701 117.998253 4.998290 -4.997221 0.000000 0.000000 0.000000 -110.024002 0.000000 0.000000 130.994461 -0.000002 0.000001 0.002053 0.000000 0.000000 -111.005257 -16.001534 0.001773 130.994461 -0.000002 0.000001 0.000000 0.000000 0.000000 
0.000000 9.997749 0.000000 -26.001497 0.000000 0.000000 29.996357 1.998772 21.997282 19.996607 -0.002476 6.997691 -6.435912 -1.320367 5.829741 -8.795362 -0.279585 16.044392 0.002398 0.000000 0.000000 14.001234 -49.002811 -22.001631 -14.000520 0.000000 0.000000 0.003334 -0.004151 -0.027924 0.000000 0.000000 0.000000 -16.001188 37.997417 -25.001701 117.998253 4.998290 -4.997221 0.000000 0.000000 0.000000 -110.024002 0.000000 0.000000 130.994461 -0.000002 0.000001 0.002281 0.000000 0.000000 -111.005241 -16.001532 0.001772 130.994461 -0.000002 0.000001 0.000000 0.000000 0.000000 
0.000000 9.997749 0.000000 -26.001497 0.000000 0.000000 29.996357 1.998772 21.997282 19.996607 -0.002475 6.997691 -7.029329 -1.417538 6.368761 -8.673416 -0.304189 15.747481 0.002637 0.000000 0.000000 14.001234 -49.002811 -22.001631 -14.000520 0.000000 0.000000 0.003668 -0.004566 -0.029842 0.000000 0.000000 0.000000 -16.001188 37.997417 -25.001701 117.998253 4.998290 -4.997221 0.000000 0.000000 0.000000 -110.024002 0.000000 0.000000 130.994461 -0.000002 0.000001 0.002509 0.000000 0.000000 -111.005257 -16.001534 0.001773 130.994461 -0.000002 0.000001 0.000000 0.000000 0.000000 
0.000000 9.997749 0.000000 -26.001497 0.000000 0.000000 29.996357 1.998772 21.997282 19.996607 -0.002475 6.997691 -7.624067 -1.509179 6.909152 -8.551270 -0.328175 15.450340 0.002877 0.000000 0.000000 14.001234 -49.002811 -22.001631 -14.000520 0.000000 0.000000 0.004001 -0.004981 -0.031760 0.000000 0.000000 0.000000 -16.001188 37.997417 -25.001701 117.998253 4.998290 -4.997221 0.000000 0.000000 0.000000 -110.024002 0.000000 0.000000 130.994461 -0.000002 0.000001 0.002737 0.000000 0.000000 -111.005257 -16.001534 0.001773 130.994461 -0.000002 0.000001 0.000000 0.000000 0.000000 
0.000000 9.997749 0.000000 -26.001497 0.000000 0.000000 29.996361 1.998772 21.997282 19.996607 -0.002475 6.997692 -8.220014 -1.595252 7.450801 -8.428933 -0.351540 15.152978 0.003117 0.000000 0.000000 14.001235 -49.002811 -22.001633 -14.000520 0.000000 0.000000 0.004335 -0.005396 -0.033679 0.000000 0.000000 0.000000 -16.001188 37.997417 -25.001701 117.998253 4.998290 -4.997221 0.000000 0.000000 0.000000 -110.024002 0.000000 0.000000 130.994461 -0.000002 0.000001 0.002965 0.000000 0.000000 -111.005257 -16.001534 0.001773 130.994461 -0.000002 0.000001 0.000000 0.000000 0.000000 
0.000000 9.997749 0.000000 -26.001497 0.000000 0.000000 29.996357 1.998772 21.997282 19.996607 -0.002475 6.997691 -8.817067 -1.675723 7.993608 -8.306403 -0.374283 14.855395 0.003357 0.000000 0.000000 14.001237 -49.002815 -22.001633 -14.000520 0.000000 0.000000 0.004669 -0.005811 -0.035597 0.000000 0.000000 0.000000 -16.001190 37.997417 -25.001703 117.998253 4.998290 -4.997221 0.000000 0.000000 0.000000 -110.024010 0.000000 0.000000 130.994461 -0.000002 0.000001 0.003193 0.000000 0.000000 -111.005257 -16.001534 0.001773 130.994461 -0.000002 0.000001 0.000000 0.000000 0.000000 
0.000000 9.997749 0.000000 -26.001499 0.000000 0.000000 29.996357 1.998772 21.997282 19.996609 -0.002475 6.997692 -9.415110 -1.750559 8.537455 -8.183692 -0.396400 14.557601 0.003596 0.000000 0.000000 14.001234 -49.002811 -22.001631 -14.000520 0.000000 0.000000 0.005002 -0.006226 -0.037515 0.000000 0.000000 0.000000 -16.001188 37.997417 -25.001701 117.998253 4.998290 -4.997221 0.000000 0.000000 0.000000 -110.024002 0.000000 0.000000 130.994446 -0.000002 0.000001 0.003421 0.000000 0.000000 -111.005241 -16.001532 0.001772 130.994461 -0.000002 0.000001 0.000000 0.000000 0.000000 
0.000000 9.997749 0.000000 -26.001501 0.000000 0.000000 29.996357 1.998771 21.997284 19.996609 -0.002475 6.997692 -10.014037 -1.819734 9.082235 -8.060801 -0.417892 14.259603 0.003836 0.000000 0.000000 14.001237 -49.002815 -22.001637 -14.000520 0.000000 0.000000 0.005336 -0.006641 -0.039433 0.000000 0.000000 0.000000 -16.001190 37.997417 -25.001703 117.998253 4.998290 -4.997221 0.000000 0.000000 0.000000 -110.024002 0.000000 0.000000 130.994461 -0.000002 0.000001 0.003649 0.000000 0.000000 -111.005257 -16.001532 0.001773 130.994461 -0.000002 0.000001 0.000000 0.000000 0.000000 
0.000000 9.997749 0.000000 -26.001497 0.000000 0.000000 29.996357 1.998772 21.997282 19.996607 -0.002475 6.997691 -10.613733 -1.883222 9.627837 -7.937734 -0.438753 13.961398 0.004076 0.000000 0.000000 14.001233 -49.002804 -22.001629 -14.000520 0.000000 0.000000 0.005669 -0.007056 -0.041351 0.000000 0.000000 0.000000 -16.001188 37.997417 -25.001701 117.998253 4.998290 -4.997221 0.000000 0.000000 0.000000 -110.023994 0.000000 0.000000 130.994461 -0.000002 0.000001 0.003877 0.000000 0.000000 -111.005241 -16.001532 0.001772 130.994461 -0.000002 0.000001 0.000000 0.000000 0.000000 
0.000000 9.997749 0.000000 -26.001493 0.000000 0.000000 29.996357 1.998772 21.997282 19.996605 -0.002475 6.997691 -11.214089 -1.941001 10.174147 -7.814498 -0.458985 13.663003 0.004316 0.000000 0.000000 14.001234 -49.002811 -22.001631 -14.000519 0.000000 0.000000 0.006003 -0.007471 -0.043269 0.000000 0.000000 0.000000 -16.001190 37.997417 -25.001701 117.998253 4.998290 -4.997221 0.000000 0.000000 0.000000 -110.024002 0.000000 0.000000 130.994446 -0.000002 0.000001 0.004105 0.000000 0.000000 -111.005257 -16.001534 0.001773 130.994461 -0.000002 0.000001 0.000000 0.000000 0.000000 
